<svg width="112" height="40" viewBox="0 0 112 40" fill="none" xmlns="http://www.w3.org/2000/svg">
<path d="M46.5836 6.78371C47.7001 6.93258 48.4892 7.42387 48.8763 8.21292C49.0847 8.62978 49.1591 9.00197 49.1591 9.59748C49.1591 10.193 49.0847 10.5354 48.9209 10.8927C48.5487 11.6818 47.8937 12.1433 46.8515 12.3517C46.4942 12.4261 46.2858 12.441 44.5588 12.441H42.6681V6.72415H44.41C45.6754 6.72415 46.2709 6.73904 46.5836 6.78371ZM37.1299 12.1433V21.9245H42.683V16.8329H44.8715C46.0774 16.8031 47.2535 16.7733 47.4917 16.7436C49.308 16.55 50.8563 16.0141 52.0771 15.1506C52.494 14.8528 53.2086 14.1531 53.5063 13.7511C54.1614 12.8728 54.5931 11.786 54.7271 10.6545C54.8016 10.1185 54.7867 8.97219 54.7122 8.43624C54.2209 5.05673 51.5858 2.85336 47.5215 2.4365C47.0153 2.37695 46.1369 2.37695 42.0279 2.37695H37.1299V12.1582V12.1433Z" fill="white"/>
<path d="M56.0819 12.1433V21.9245H58.851H61.6201V12.1433V2.36206H58.851H56.0819V12.1433Z" fill="white"/>
<path d="M74.4086 10.8927C75.0935 12.5899 75.6443 13.9893 75.6294 14.0042C75.6294 14.0042 74.4979 14.0191 73.1283 14.0042H70.642L71.8926 10.8778C72.5774 9.16574 73.1432 7.76629 73.1581 7.78118C73.1581 7.78118 73.7238 9.18062 74.4086 10.8927ZM70.3889 2.52583C70.3443 2.63004 68.4089 7.00702 66.0864 12.2624C63.7639 17.5177 61.8583 21.85 61.8434 21.8798C61.8285 21.9245 62.3943 21.9245 64.6572 21.9245H67.4858L68.2451 20.0337L69.0044 18.1579H77.3117L78.071 20.0486L78.8303 21.9394H84.6067L84.4578 21.6267C84.3834 21.4481 82.4331 17.0562 80.1255 11.8455L75.9421 2.39184H73.2027L70.4634 2.37695L70.3889 2.5556V2.52583Z" fill="white"/>
<path d="M84.2047 8.45112C84.2047 14.5104 84.2047 14.5551 84.3089 15.1059C84.562 16.6245 84.9789 17.7708 85.6488 18.7832C86.9738 20.7632 88.9539 21.8798 91.7676 22.252C92.5418 22.3562 94.2539 22.3562 95.0132 22.252C96.0702 22.118 96.889 21.9096 97.6781 21.5821C98.2438 21.3587 98.5415 21.195 99.137 20.793C99.7177 20.4059 100.581 19.5722 100.998 18.9767C101.891 17.6964 102.412 16.1183 102.546 14.1829C102.576 13.8256 102.591 11.4435 102.591 7.9896V2.37695H97.1272V8.24269L97.0974 14.1084L97.0081 14.5848C96.6359 16.4756 95.7873 17.4135 94.1943 17.6815C93.4797 17.8155 92.5716 17.741 91.9314 17.5028C90.9339 17.1306 90.2342 16.2969 89.9216 15.0464C89.728 14.2722 89.7131 14.1829 89.7131 8.07893V2.36206H84.16V8.45112H84.2047Z" fill="white"/>
<path d="M96.5168 29.0855C96.9635 29.2343 97.3208 29.4577 97.6632 29.7852C98.1545 30.2765 98.4225 30.8422 98.5118 31.5866C98.6309 32.599 98.3332 33.522 97.6781 34.1919C97.291 34.579 96.8742 34.8023 96.2935 34.9512C95.8171 35.0703 95.0727 35.0405 94.5963 34.8917C93.9115 34.6683 93.3309 34.2068 92.9885 33.6262C92.5865 32.9414 92.4674 31.8992 92.6758 31.0953C92.9587 30.0532 93.7924 29.2343 94.8643 28.9961C95.2663 28.9068 96.1 28.9366 96.502 29.0706L96.5168 29.0855ZM94.8048 27.1054C92.9736 27.3585 91.5741 28.3113 90.8298 29.8001C90.264 30.9167 90.1747 32.3459 90.5767 33.6262C91.0382 35.0703 92.3483 36.2911 93.8966 36.7228C94.9388 37.0057 96.1149 37.0057 97.1719 36.7228C99.0031 36.2167 100.388 34.6981 100.7 32.8372C100.775 32.3459 100.76 31.3931 100.656 30.9464C100.447 29.9936 100.001 29.1897 99.3008 28.5197C98.5714 27.82 97.7972 27.418 96.7402 27.1947C96.2786 27.0905 95.2216 27.0459 94.7899 27.1054H94.8048Z" fill="white"/>
<path d="M104.273 27.1203C103.469 27.2543 102.755 27.5073 102.264 27.8795C101.594 28.3708 101.206 29.1599 101.206 30.0383C101.206 30.9166 101.385 31.2739 101.921 31.7801C102.457 32.2863 102.904 32.4649 104.765 32.9413C105.807 33.2093 106.075 33.2987 106.358 33.5071C106.655 33.7155 106.774 33.9686 106.715 34.2961C106.67 34.5641 106.492 34.7725 106.209 34.9214C105.211 35.4127 103.231 35.1298 101.951 34.3259L101.742 34.1919L101.713 34.2812C101.698 34.3408 101.519 34.713 101.34 35.1149L101.013 35.8444L101.102 35.9189C101.281 36.0529 101.728 36.2911 102.1 36.44C103.529 37.0206 105.583 37.1099 106.864 36.6633C107.415 36.4697 108.07 36.0529 108.338 35.7105C108.874 35.0405 109.067 34.2068 108.903 33.3731C108.814 32.986 108.68 32.6883 108.397 32.4054C107.861 31.8248 107.34 31.6015 105.464 31.1251C104.05 30.7677 103.633 30.5891 103.484 30.2467C103.246 29.7107 103.603 29.145 104.318 28.9217C104.66 28.8175 105.405 28.8026 105.911 28.877C106.417 28.9514 107.057 29.1599 107.519 29.3981C107.698 29.4874 107.861 29.5618 107.876 29.547C107.876 29.547 108.04 29.1599 108.219 28.7132C108.472 28.0731 108.546 27.8944 108.501 27.8646C108.159 27.6264 107.4 27.3436 106.774 27.2096C105.971 27.0458 104.973 27.0012 104.288 27.1054L104.273 27.1203Z" fill="white"/>
<path d="M36.5939 32.0034V36.7675H40.0627H43.5464L43.5315 36.1869L43.5166 35.5914L40.7326 35.5765H37.9487V34.0579V32.5394L40.3456 32.5245L42.7425 32.5096V31.929L42.7574 31.3335H40.3456H37.9487V29.8745V28.4155H40.6433H43.338V27.82V27.2245H39.9585H36.5939V32.0034Z" fill="white"/>
<path d="M45.0649 32.0034V36.7675H46.3751V33.3284L46.3899 29.8894L48.102 32.7329L49.8141 35.5765H50.4692L52.1812 32.718L53.8933 29.8596V33.3136L53.9082 36.7675H55.2183V27.2245H54.6526L54.0869 27.2543L52.1366 30.5891C51.0647 32.4203 50.1714 33.9239 50.1565 33.9091C50.1565 33.9091 49.2484 32.3905 48.1616 30.5593L46.1815 27.2245H45.6158H45.05V31.9885L45.0649 32.0034Z" fill="white"/>
<path d="M65.342 29.1598C65.9078 29.3087 66.2502 29.5171 66.6521 29.9042C66.9201 30.1722 67.0392 30.321 67.1583 30.5593C67.3965 31.0505 67.4561 31.3185 67.4561 32.0182C67.4561 32.5542 67.4561 32.6733 67.3667 32.9413C67.0839 33.8643 66.4586 34.4896 65.5802 34.7725C65.0889 34.9362 64.8061 34.9511 63.5257 34.9511H62.3347V29.0258H63.6895C64.9103 29.0556 65.0592 29.0705 65.3569 29.1449L65.342 29.1598ZM60.1016 32.0034V36.7823H62.8111C65.7738 36.7525 65.6547 36.7525 66.4735 36.4845C67.7389 36.0677 68.7513 35.2042 69.2724 34.0727C69.8083 32.9264 69.8381 31.259 69.3319 30.068C69.1682 29.6809 68.8257 29.1449 68.5131 28.8025C68.0218 28.2665 67.203 27.7753 66.4288 27.5222C65.6249 27.2691 65.5207 27.2542 62.692 27.2393H60.1164C60.1164 27.2244 60.1164 32.0034 60.1164 32.0034H60.1016Z" fill="white"/>
<path d="M75.3912 31.2293C75.7932 32.2268 76.1356 33.0456 76.1356 33.0456C76.1356 33.0456 75.4657 33.0605 74.632 33.0605C73.7982 33.0605 73.1283 33.0605 73.1283 33.0307C73.1283 33.0009 74.6171 29.3981 74.632 29.3981C74.632 29.3981 74.9744 30.2169 75.3912 31.2144V31.2293ZM73.5303 27.284C73.5303 27.3138 72.5775 29.4428 71.4311 32.0034C70.2848 34.5641 69.3319 36.6931 69.3319 36.7228C69.3171 36.7675 69.5553 36.7824 70.4485 36.7824C71.3418 36.7824 71.58 36.7824 71.5949 36.7228C71.5949 36.6931 71.7884 36.2613 71.9968 35.77C72.2053 35.2787 72.3839 34.847 72.3988 34.8172C72.4137 34.7874 72.905 34.7726 74.6468 34.7726H76.8651L77.282 35.77L77.6988 36.7675H78.8601C79.9915 36.7824 80.0213 36.7824 79.9915 36.7079C79.9766 36.6633 79.0238 34.5195 77.8626 31.9439L75.7634 27.2543H74.6766C73.8429 27.2543 73.5749 27.2543 73.5601 27.2989L73.5303 27.284Z" fill="white"/>
<path d="M85.5743 29.1599C86.1401 29.3088 86.4825 29.5172 86.8844 29.9043C87.1524 30.1723 87.2715 30.3212 87.3906 30.5594C87.6288 31.0656 87.6884 31.3186 87.6884 32.0184C87.6884 32.7181 87.6884 32.6734 87.599 32.9414C87.3162 33.8644 86.7058 34.4897 85.8125 34.7726C85.3212 34.9363 85.0384 34.9512 83.758 34.9512H82.567V29.0259H83.9218C85.1426 29.0557 85.2915 29.0706 85.5892 29.145L85.5743 29.1599ZM80.3339 32.0035V36.7824H83.0434C85.6339 36.7526 85.7679 36.7526 86.0954 36.6633C87.2417 36.3805 88.0606 35.9338 88.7305 35.2341C89.4302 34.4897 89.8322 33.5816 89.9215 32.4799C90.13 29.8299 88.5667 27.8349 85.887 27.3436C85.5594 27.2841 85.1277 27.2692 82.9243 27.2543H80.3487C80.3487 27.2394 80.3487 32.0184 80.3487 32.0184L80.3339 32.0035Z" fill="white"/>
<path d="M110.273 34.2961C110.05 34.3557 109.752 34.5939 109.618 34.8023C109.454 35.0405 109.395 35.2192 109.395 35.5616C109.395 36.0827 109.678 36.5293 110.124 36.7526C110.318 36.8568 110.407 36.8717 110.705 36.8717C111.003 36.8717 111.092 36.8568 111.285 36.7526C111.553 36.6186 111.777 36.3804 111.911 36.1124C111.97 35.9636 112 35.8445 112 35.5467C112 35.1001 111.911 34.8916 111.658 34.6237C111.39 34.3557 111.196 34.2812 110.764 34.2664C110.556 34.2664 110.333 34.2664 110.273 34.2961Z" fill="white"/>
<path d="M104.973 7.91516V21.9245H107.757H110.526V4.19324L104.973 7.91516Z" fill="white"/>
<path d="M104.973 5.94999L110.526 2.36206H107.757H104.973V5.94999Z" fill="white"/>
<path d="M17.5 34.5V0.5H27.5V34.5H17.5Z" fill="#EF4123" stroke="#034EA2"/>
<path d="M9.5 34.5V9.5H19.5V34.5H9.5Z" fill="#FDB913" stroke="#034EA2"/>
<path d="M0.5 34.5V15.5H10.5V34.5H0.5Z" fill="white" stroke="#034EA2"/>
<path d="M27.1551 36.6038H0V39.2984H27.1551V36.6038Z" fill="white"/>
</svg>
